<svg width="24" height="24" viewBox="0 0 24 24" fill="none" xmlns="http://www.w3.org/2000/svg">
<path d="M4.5 3.75012L19.5 20.2501" stroke="#01C0FA" stroke-width="2" stroke-linecap="round" stroke-linejoin="round"/>
<path d="M14.5225 14.7749C13.7866 15.4438 12.8151 15.793 11.8217 15.7457C10.8283 15.6983 9.8944 15.2583 9.22542 14.5225C8.55644 13.7866 8.20716 12.8151 8.25442 11.8217C8.30168 10.8283 8.74161 9.89439 9.47742 9.22534" stroke="#01C0FA" stroke-width="2" stroke-linecap="round" stroke-linejoin="round"/>
<path d="M6.93698 6.43079C3.11486 8.36631 1.5 12.0001 1.5 12.0001C1.5 12.0001 4.5 18.7494 12 18.7494C13.7572 18.7634 15.4926 18.3587 17.0623 17.5687" stroke="#01C0FA" stroke-width="2" stroke-linecap="round" stroke-linejoin="round"/>
<path d="M19.5572 15.8532C21.6011 14.0225 22.5001 12.0001 22.5001 12.0001C22.5001 12.0001 19.5001 5.24941 12.0001 5.24941C11.3505 5.24834 10.7019 5.30115 10.0611 5.40729" stroke="#01C0FA" stroke-width="2" stroke-linecap="round" stroke-linejoin="round"/>
<path d="M12.7057 8.31641C13.5027 8.46945 14.2287 8.8768 14.7746 9.47734C15.3205 10.0779 15.657 10.8392 15.7336 11.6472" stroke="#01C0FA" stroke-width="2" stroke-linecap="round" stroke-linejoin="round"/>
</svg>
