<svg width="24" height="23" viewBox="0 0 24 23" fill="none" xmlns="http://www.w3.org/2000/svg">
<path d="M20.4505 4.91748L15.9505 7.51562V5.41748H7.95053C4.63681 5.41748 1.95053 8.10376 1.95053 11.4175C1.95053 12.5845 2.28317 13.6721 2.85861 14.5928L2.01071 15.1228C1.33871 14.0479 0.950531 12.7773 0.950531 11.4175C0.950531 7.55151 4.08456 4.41748 7.95053 4.41748H15.9505V2.31934L20.4505 4.91748Z" fill="white"/>
<path d="M22.9505 11.4175C22.9505 10.363 22.6789 9.37354 22.2024 8.51367L23.077 8.02881C23.6338 9.03345 23.9505 10.1892 23.9505 11.4175C23.9505 15.2834 20.8165 18.4175 16.9505 18.4175H7.95053V20.5156L3.45053 17.9175L7.95053 15.3193V17.4175H16.9505C20.2643 17.4175 22.9505 14.7312 22.9505 11.4175Z" fill="white"/>
</svg>
