<svg width="22" height="30" viewBox="0 0 22 30" fill="none" xmlns="http://www.w3.org/2000/svg">
<path fill-rule="evenodd" clip-rule="evenodd" d="M10.6667 0C13.6122 0 16 2.38781 16 5.33333V14.6667C16 17.6122 13.6122 20 10.6667 20C7.72115 20 5.33333 17.6122 5.33333 14.6667V5.33333C5.33333 2.38781 7.72115 0 10.6667 0ZM12 25.2508V26.6667H16V29.3333H5.33333V26.6667H9.33333V25.2508C4.07158 24.5947 0 20.1062 0 14.6667V12H2.66667V14.6667C2.66667 19.0849 6.24839 22.6667 10.6667 22.6667C15.0849 22.6667 18.6667 19.0849 18.6667 14.6667V12H21.3333V14.6667C21.3333 20.1062 17.2617 24.5947 12 25.2508ZM8 5.33333C8 3.86057 9.19391 2.66667 10.6667 2.66667C12.1394 2.66667 13.3333 3.86057 13.3333 5.33333V14.6667C13.3333 16.1394 12.1394 17.3333 10.6667 17.3333C9.19391 17.3333 8 16.1394 8 14.6667V5.33333Z" fill="white"/>
</svg>
