<svg width="26" height="26" viewBox="0 0 26 26" fill="none" xmlns="http://www.w3.org/2000/svg">
<path fill-rule="evenodd" clip-rule="evenodd" d="M2.39 10.8969C2.05698 11.1051 1.625 10.8656 1.625 10.4729V4.15217C1.625 3.75945 2.05698 3.52003 2.39 3.72817L7.4466 6.88854C7.75994 7.08438 7.75994 7.54071 7.4466 7.73654L2.39 10.8969ZM13.8125 8.12504C13.3638 8.12504 13 8.48881 13 8.93754C13 9.38627 13.3638 9.75004 13.8125 9.75004H23.5625C24.0112 9.75004 24.375 9.38627 24.375 8.93754C24.375 8.48881 24.0112 8.12504 23.5625 8.12504H13.8125ZM1.625 15.4375C1.625 14.9888 1.98877 14.625 2.4375 14.625H23.5625C24.0112 14.625 24.375 14.9888 24.375 15.4375C24.375 15.8863 24.0112 16.25 23.5625 16.25H2.4375C1.98877 16.25 1.625 15.8863 1.625 15.4375ZM2.4375 21.125C1.98877 21.125 1.625 21.4888 1.625 21.9375C1.625 22.3863 1.98877 22.75 2.4375 22.75H23.5625C24.0112 22.75 24.375 22.3863 24.375 21.9375C24.375 21.4888 24.0112 21.125 23.5625 21.125H2.4375Z" fill="white"/>
</svg>
