<svg width="58" height="55" viewBox="0 0 58 55" fill="none" xmlns="http://www.w3.org/2000/svg">
<path fill-rule="evenodd" clip-rule="evenodd" d="M28.9396 54.7253C44.5067 54.7253 57.1264 42.4746 57.1264 27.3626C57.1264 12.2507 44.5067 0 28.9396 0C13.3724 0 0.752747 12.2507 0.752747 27.3626C0.752747 42.4746 13.3724 54.7253 28.9396 54.7253ZM20.4835 16.4176C19.9646 16.4176 19.544 16.8259 19.544 17.3297V37.3956C19.544 37.8994 19.9646 38.3077 20.4835 38.3077H24.2418C24.7607 38.3077 25.1813 37.8994 25.1813 37.3956V17.3297C25.1813 16.8259 24.7607 16.4176 24.2418 16.4176H20.4835ZM33.6374 16.4176C33.1184 16.4176 32.6978 16.8259 32.6978 17.3297V37.3956C32.6978 37.8994 33.1184 38.3077 33.6374 38.3077H37.3956C37.9145 38.3077 38.3352 37.8994 38.3352 37.3956V17.3297C38.3352 16.8259 37.9145 16.4176 37.3956 16.4176H33.6374Z" fill="#1ED760"/>
</svg>
