<svg width="23" height="23" viewBox="0 0 23 23" fill="none" xmlns="http://www.w3.org/2000/svg">
<path fill-rule="evenodd" clip-rule="evenodd" d="M11.1367 6.9119C12.5129 5.73921 13.5 4.91748 17 4.91748V5.91748C14 5.91748 13.0496 6.59575 11.7852 7.67306C10.5114 8.75845 9.37033 10.2155 8.20851 11.7227C8.16178 11.7834 8.11502 11.8441 8.0682 11.9048C6.96595 13.3357 5.83786 14.8001 4.59114 15.9152C3.28305 17.0851 1.79404 17.9175 0 17.9175V16.9175C1.45596 16.9175 2.71695 16.2498 3.92448 15.1698C5.1003 14.1181 6.1775 12.7202 7.30122 11.2618C7.33959 11.212 7.37801 11.1622 7.4165 11.1122C8.56717 9.61946 9.76986 8.07651 11.1367 6.9119Z" fill="white"/>
<path d="M21 5.41748L16.5 8.01556L16.5 2.8194L21 5.41748Z" fill="white"/>
<path d="M21 17.4175L16.5 20.0156L16.5 14.8194L21 17.4175Z" fill="white"/>
<path d="M17 17.9175C13.5 17.9175 12.5129 17.0958 11.1367 15.9231C10.472 15.3567 9.84606 14.7008 9.24609 14.0048L10.0199 13.3708C10.5889 14.0301 11.1717 14.6391 11.7852 15.1619C13.0496 16.2392 13.5 16.9175 17 16.9175V17.9175Z" fill="white"/>
<path d="M6.22575 8.62017C5.69957 8.00521 5.1576 7.42644 4.59114 6.9198C3.28305 5.74983 1.79404 4.91748 0 4.91748V5.91748C1.45596 5.91748 2.71695 6.58513 3.92448 7.66516C4.44903 8.13432 4.95394 8.6724 5.45212 9.25401L6.22575 8.62017Z" fill="white"/>
</svg>
