<svg width="26" height="26" viewBox="0 0 26 26" fill="none" xmlns="http://www.w3.org/2000/svg">
<path fill-rule="evenodd" clip-rule="evenodd" d="M15.0263 14.7452C13.2923 14.0867 11.9131 12.7076 11.2546 10.9735L4.65681 20.4579L5.54192 21.343L15.0263 14.7452ZM10.9081 7.67765C11.3844 4.55711 14.0797 2.1665 17.3333 2.1665C20.9232 2.1665 23.8333 5.07665 23.8333 8.6665C23.8333 11.9202 21.4427 14.6155 18.3222 15.0918L5.29141 24.1567L1.84319 20.7084L10.9081 7.67765ZM21.1485 10.723C21.479 10.1111 21.6667 9.41074 21.6667 8.6665C21.6667 6.27327 19.7266 4.33317 17.3333 4.33317C16.5819 4.33317 15.8751 4.52445 15.259 4.86096C15.5867 5.88356 16.7139 7.59831 17.5577 8.44214C18.3877 9.27218 20.0729 10.3742 21.1485 10.723ZM19.5358 12.3992C18.8904 12.7808 18.1375 12.9998 17.3333 12.9998C14.9401 12.9998 13 11.0597 13 8.6665C13 7.86965 13.2151 7.12303 13.5904 6.48153C14.1934 7.76417 15.1611 9.10969 16.0256 9.9742C16.8791 10.8276 18.2367 11.7931 19.5358 12.3992Z" fill="white"/>
</svg>
