<svg width="26" height="26" viewBox="0 0 26 26" fill="none" xmlns="http://www.w3.org/2000/svg">
<g id="24 / gadgets / devices">
<path id="icon" fill-rule="evenodd" clip-rule="evenodd" d="M3.25001 6.50016V16.2502L1.08334 16.2502V19.5002C1.08334 20.6968 2.05339 21.6668 3.25001 21.6668H17.3333H22.75C23.9466 21.6668 24.9167 20.6968 24.9167 19.5002V9.75016C24.9167 8.55355 23.9466 7.5835 22.75 7.5835V6.50016C22.75 5.30355 21.78 4.3335 20.5833 4.3335H5.41668C4.22006 4.3335 3.25001 5.30355 3.25001 6.50016ZM20.5833 7.5835V6.50016H5.41668V16.2502L15.1667 16.2502L15.1667 9.75016C15.1667 8.55355 16.1367 7.5835 17.3333 7.5835L20.5833 7.5835ZM3.25001 18.4168H15.1667L15.1667 19.5002L3.25001 19.5002V18.4168ZM22.75 19.5002H17.3333V9.75016H22.75V19.5002Z" fill="white"/>
</g>
</svg>
