<svg width="13" height="13" viewBox="0 0 13 13" fill="none" xmlns="http://www.w3.org/2000/svg">
<path d="M9.31387 0.875005C8.76817 0.874068 8.22979 1.00048 7.74153 1.2442C7.25328 1.48791 6.82863 1.8422 6.50137 2.27888C6.05815 1.68916 5.4407 1.25375 4.73639 1.03426C4.03209 0.814779 3.2766 0.82233 2.57682 1.05585C1.87704 1.28937 1.26842 1.73704 0.837074 2.3355C0.405727 2.93396 0.173498 3.65292 0.173248 4.39063C0.173248 8.60134 6.0233 11.9258 6.27232 12.0652C6.3423 12.1044 6.42117 12.125 6.50137 12.125C6.58158 12.125 6.66045 12.1044 6.73043 12.0652C7.80636 11.4351 8.81617 10.6983 9.74463 9.866C11.7916 8.02373 12.8295 6.18154 12.8295 4.39063C12.8284 3.45855 12.4577 2.56495 11.7986 1.90587C11.1396 1.2468 10.246 0.876062 9.31387 0.875005V0.875005Z" fill="white" fill-opacity="0.5"/>
</svg>
